<svg xmlns="http://www.w3.org/2000/svg" width="47.227" height="30.001" viewBox="0 0 47.227 30.001">
  <path id="Union_5" data-name="Union 5" d="M962.053,49.581a15,15,0,0,1,25.093-11.1c-3.139,2.965-3.036,3.141-4.271,4.375a8.5,8.5,0,0,0-5.823-2.19,8.912,8.912,0,0,0,0,17.822c4.863,0,6.838-2.1,8.109-5.948-2.346,0-8.109.008-8.109.008V46.611h14.405c1,7.188-2.023,17.97-14.405,17.97A15,15,0,0,1,962.053,49.581Zm38.316,6.386V50.621h-5.346V46.908h5.346v-5.2h3.713v5.2h5.2v3.713h-5.2v5.346Z" transform="translate(-962.053 -34.581)" fill="#3d58a6"/>
</svg>
