<svg xmlns="http://www.w3.org/2000/svg" width="98.363" height="30" viewBox="0 0 98.363 30">
  <g id="Group_260" data-name="Group 260" transform="translate(-1139.645 -531.19)">
    <g id="Group_259" data-name="Group 259">
      <path id="Path_417" data-name="Path 417" d="M1146.922,555.508a1.362,1.362,0,0,1-.508-.211l-5.693-5.52q-.411-.39-.587-.575a2.138,2.138,0,0,1-.333-.494,1.446,1.446,0,0,1-.156-.664v-.793a1.416,1.416,0,0,1,.166-.672,2.137,2.137,0,0,1,.313-.47q.147-.153.616-.59l5.674-5.667a.79.79,0,0,1,.489-.162.624.624,0,0,1,.479.2.706.706,0,0,1,.186.494v.907a1.68,1.68,0,0,1-.02.267c-.013.081-.026.151-.039.211a.684.684,0,0,1-.1.21,1.164,1.164,0,0,0-.1.17.838.838,0,0,1-.147.178c-.085.087-.134.135-.147.146l-.2.178c-.117.108-.182.167-.195.178l-4.382,4.533a.329.329,0,0,0,0,.583l4.382,4.371c.039.033.1.089.195.17s.154.138.186.17l.157.154a1.385,1.385,0,0,1,.147.162l.107.162a.619.619,0,0,1,.088.194c.013.06.026.13.039.211a1.68,1.68,0,0,1,.02.267v1.02a.682.682,0,0,1-.186.477A.6.6,0,0,1,1146.922,555.508Z" fill="#e6e6e6"/>
      <path id="Path_418" data-name="Path 418" d="M1152.442,561.174q-.176,0-.176-.421a.382.382,0,0,1,.01-.065.469.469,0,0,0,.01-.08l4.577-28.851c.065-.378.183-.567.352-.567h2.68c.13,0,.2.135.2.4a.473.473,0,0,1-.02.162l-4.6,28.867q-.1.565-.313.566Z" fill="#e6e6e6"/>
      <path id="Path_419" data-name="Path 419" d="M1164.434,557.855a.487.487,0,0,1-.391-.137,1.069,1.069,0,0,1-.118-.624V535.335a1.063,1.063,0,0,1,.118-.623.487.487,0,0,1,.391-.138h2.836a.487.487,0,0,1,.391.138,1.063,1.063,0,0,1,.118.623v8.613a.5.5,0,0,0,.068.259c.046.076.088.114.128.114h5.868c.039,0,.085-.041.137-.122a.484.484,0,0,0,.078-.267v-8.6a1.013,1.013,0,0,1,.127-.615.481.481,0,0,1,.382-.146h2.876a.461.461,0,0,1,.371.138,1.071,1.071,0,0,1,.118.623v21.759a1.077,1.077,0,0,1-.118.624.46.46,0,0,1-.371.137h-2.876a.742.742,0,0,1-.274-.04.391.391,0,0,1-.176-.219,1.286,1.286,0,0,1-.078-.5V547.2c0-.226-.072-.34-.215-.34h-5.81c-.131,0-.2.114-.2.34v9.892a1.011,1.011,0,0,1-.127.616.481.481,0,0,1-.382.145Z" fill="#e6e6e6"/>
      <path id="Path_420" data-name="Path 420" d="M1185.268,557.855a.44.44,0,0,1-.362-.154,1.045,1.045,0,0,1-.128-.623V537.585c0-.269-.071-.4-.215-.4h-3.4a1.178,1.178,0,0,1-.283-.025.279.279,0,0,1-.157-.162,1,1,0,0,1-.068-.429v-1.278a.957.957,0,0,1,.117-.575.489.489,0,0,1,.391-.138h11.053a.463.463,0,0,1,.372.138.956.956,0,0,1,.117.575v1.278a.79.79,0,0,1-.107.511.544.544,0,0,1-.382.105h-3.345c-.144,0-.215.135-.215.4v19.493a1.055,1.055,0,0,1-.127.632.482.482,0,0,1-.382.145Z" fill="#e6e6e6"/>
      <path id="Path_421" data-name="Path 421" d="M1195.518,557.855c-.312,0-.469-.264-.469-.793v-.081l.88-21.484q.02-.89.489-.923h3.091a.881.881,0,0,1,.489.162,1,1,0,0,1,.294.6l3.306,15.316a.17.17,0,0,0,.068.1.081.081,0,0,0,.1,0,.111.111,0,0,0,.049-.1l3.325-15.267q.177-.777.763-.81h3.13q.469.033.47.923l.919,21.484v.1q0,.777-.489.777h-2.152q-.47,0-.508-.874l-.607-16.627c0-.065-.019-.1-.058-.113a.058.058,0,0,0-.078.048l-3.561,16.789q-.156.777-.665.777h-1.271c-.314,0-.535-.259-.666-.777L1198.9,540.37c-.014-.065-.04-.075-.079-.032a.194.194,0,0,0-.019.1l-.626,16.546q0,.875-.45.874Z" fill="#e6e6e6"/>
      <path id="Path_422" data-name="Path 422" d="M1217.076,557.855a.463.463,0,0,1-.372-.137,1.079,1.079,0,0,1-.117-.624V535.335a1.073,1.073,0,0,1,.117-.623.463.463,0,0,1,.372-.138h2.876a.461.461,0,0,1,.371.138,1.063,1.063,0,0,1,.118.623v19.59c0,.237.091.356.274.356h5.086a.525.525,0,0,1,.372.113.773.773,0,0,1,.117.519v1.295a.805.805,0,0,1-.117.526.5.5,0,0,1-.372.121Z" fill="#e6e6e6"/>
      <path id="Path_423" data-name="Path 423" d="M1230.731,555.508a.592.592,0,0,1-.47-.2.751.751,0,0,1-.176-.51v-.89c0-.076,0-.148.01-.218a1.241,1.241,0,0,1,.029-.187,1.04,1.04,0,0,1,.059-.17c.026-.059.049-.108.068-.146a1.086,1.086,0,0,1,.1-.145c.046-.059.078-.1.1-.13s.059-.073.117-.137a1.442,1.442,0,0,1,.128-.13c.025-.021.078-.067.156-.138a1.637,1.637,0,0,0,.156-.153l4.4-4.517a.424.424,0,0,0,.156-.308.324.324,0,0,0-.175-.275l-4.363-4.372a2.494,2.494,0,0,0-.225-.2,1.937,1.937,0,0,1-.215-.194c-.033-.038-.088-.094-.167-.17a.642.642,0,0,1-.146-.186c-.02-.049-.049-.114-.088-.194a.856.856,0,0,1-.078-.252,1.965,1.965,0,0,1-.02-.291v-1.036a.672.672,0,0,1,.176-.478.616.616,0,0,1,.47-.186.955.955,0,0,1,.488.194l5.693,5.537q.45.422.607.583a2.185,2.185,0,0,1,.322.47,1.371,1.371,0,0,1,.167.663v.794c0,.086,0,.164-.01.234a.716.716,0,0,1-.059.219,1.421,1.421,0,0,0-.068.186.523.523,0,0,1-.117.186.745.745,0,0,0-.118.162.807.807,0,0,1-.157.187c-.091.092-.146.148-.166.17s-.088.086-.2.194-.189.173-.215.194l-5.654,5.667A.955.955,0,0,1,1230.731,555.508Z" fill="#e6e6e6"/>
    </g>
  </g>
</svg>
