<svg xmlns="http://www.w3.org/2000/svg" width="84.81" height="127.513" viewBox="0 0 84.81 127.513">
  <path id="Path_424" data-name="Path 424" d="M844.427,1804.818a1.977,1.977,0,0,0-2.786.227l-13.693,16.07-8.75-6.933a1.972,1.972,0,1,0-2.46,3.082l10.247,8.12a1.984,1.984,0,0,0,2.738-.266l14.932-17.525A1.962,1.962,0,0,0,844.427,1804.818ZM830.559,1838a1.972,1.972,0,0,0-1.977,1.968,5.926,5.926,0,0,1-5.931,5.906H770.2a5.926,5.926,0,0,1-5.93-5.906V1732.144a5.925,5.925,0,0,1,5.93-5.905h52.452a5.925,5.925,0,0,1,5.931,5.905V1792.4a1.977,1.977,0,0,0,3.954,0v-33.61a3.289,3.289,0,0,0,2.64-3.215v-8.613a3.289,3.289,0,0,0-2.64-3.215v-11.6a9.874,9.874,0,0,0-9.885-9.842H770.2a9.873,9.873,0,0,0-9.884,9.842v107.828a9.874,9.874,0,0,0,9.884,9.843h52.452a9.886,9.886,0,0,0,9.8-8.571,1.946,1.946,0,0,0,.083-.563v-.709A1.974,1.974,0,0,0,830.559,1838ZM806.31,1732.332a1.969,1.969,0,1,0,0-3.937H786.542a1.969,1.969,0,1,0,0,3.937Zm-15.38,106.739a5.5,5.5,0,1,0,5.5-5.471A5.491,5.491,0,0,0,790.93,1839.071Zm7.038,0a1.542,1.542,0,1,1-1.542-1.534A1.54,1.54,0,0,1,797.968,1839.071Zm22.081-44.827a2.175,2.175,0,0,0,2.179-2.171v-44.066c0-3.665-3.536-6.88-7.567-6.88H778.917a7.56,7.56,0,0,0-7.567,7.537v73.475a7.561,7.561,0,0,0,7.567,7.537H810.1a2.172,2.172,0,1,0,0-4.344H778.917a3.2,3.2,0,0,1-3.207-3.194v-73.474a3.2,3.2,0,0,1,3.207-3.195h35.744a3.17,3.17,0,0,1,3.208,2.538v44.067A2.174,2.174,0,0,0,820.049,1794.244Z" transform="translate(-760.315 -1722.302)" fill="#3d58a6"/>
</svg>
